<mxfile host="65bd71144e">
    <diagram id="ngj8GnP2FIb6VkYgvcPQ" name="ページ1">
        <mxGraphModel dx="1915" dy="1307" grid="1" gridSize="10" guides="1" tooltips="1" connect="1" arrows="1" fold="1" page="1" pageScale="1" pageWidth="827" pageHeight="1169" math="0" shadow="0">
            <root>
                <mxCell id="0"/>
                <mxCell id="1" parent="0"/>
                <mxCell id="8" value="&lt;div style=&quot;&quot;&gt;&lt;span style=&quot;background-color: initial;&quot;&gt;曼荼羅を使って&lt;/span&gt;&lt;/div&gt;&lt;div style=&quot;&quot;&gt;&lt;span style=&quot;background-color: initial;&quot;&gt;アイデンティティを&lt;/span&gt;&lt;/div&gt;&lt;div style=&quot;&quot;&gt;&lt;span style=&quot;background-color: initial;&quot;&gt;開発しよう&lt;/span&gt;&lt;/div&gt;" style="rounded=1;whiteSpace=wrap;html=1;fontSize=18;align=center;" vertex="1" parent="1">
                    <mxGeometry x="1404" y="10" width="250" height="100" as="geometry"/>
                </mxCell>
                <mxCell id="20" value="" style="group" vertex="1" connectable="0" parent="1">
                    <mxGeometry x="60" y="40" width="1250" height="1250" as="geometry"/>
                </mxCell>
                <mxCell id="2" value="" style="ellipse;whiteSpace=wrap;html=1;" vertex="1" parent="20">
                    <mxGeometry width="1250" height="1250" as="geometry"/>
                </mxCell>
                <mxCell id="4" value="" style="shape=cylinder3;whiteSpace=wrap;html=1;boundedLbl=1;backgroundOutline=1;size=15;" vertex="1" parent="20">
                    <mxGeometry x="546.875" y="484.37500000000006" width="156.25" height="234.375" as="geometry"/>
                </mxCell>
                <mxCell id="3" value="Actor" style="shape=umlActor;verticalLabelPosition=bottom;verticalAlign=top;html=1;outlineConnect=0;" vertex="1" parent="20">
                    <mxGeometry x="585.9375" y="546.875" width="78.125" height="156.25" as="geometry"/>
                </mxCell>
                <mxCell id="5" value="楔と鎖の理論" style="rounded=1;whiteSpace=wrap;html=1;fontSize=18;" vertex="1" parent="20">
                    <mxGeometry x="531.5699999999999" y="250" width="186.87" height="50" as="geometry"/>
                </mxCell>
                <mxCell id="6" value="宮台真司" style="rounded=1;whiteSpace=wrap;html=1;fontSize=18;" vertex="1" parent="20">
                    <mxGeometry x="544.4599999999999" y="400" width="161.09" height="50" as="geometry"/>
                </mxCell>
                <mxCell id="7" value="コンステレーション" style="rounded=1;whiteSpace=wrap;html=1;fontSize=18;" vertex="1" parent="20">
                    <mxGeometry x="810" y="303.13" width="250" height="50" as="geometry"/>
                </mxCell>
                <mxCell id="9" value="社会不適合者" style="rounded=1;whiteSpace=wrap;html=1;fontSize=18;" vertex="1" parent="20">
                    <mxGeometry x="300" y="330" width="185.63" height="46.87" as="geometry"/>
                </mxCell>
                <mxCell id="10" value="引きこもり" style="rounded=1;whiteSpace=wrap;html=1;fontSize=18;" vertex="1" parent="20">
                    <mxGeometry x="804.37" y="440" width="164.38" height="48.13" as="geometry"/>
                </mxCell>
                <mxCell id="11" value="童貞" style="rounded=1;whiteSpace=wrap;html=1;fontSize=18;" vertex="1" parent="20">
                    <mxGeometry x="260" y="470" width="121.88" height="50" as="geometry"/>
                </mxCell>
                <mxCell id="13" value="フォークソング" style="rounded=1;whiteSpace=wrap;html=1;fontSize=18;" vertex="1" parent="20">
                    <mxGeometry x="810" y="830" width="208.75" height="50.63" as="geometry"/>
                </mxCell>
                <mxCell id="14" value="ニヒリズム" style="rounded=1;whiteSpace=wrap;html=1;fontSize=18;" vertex="1" parent="20">
                    <mxGeometry x="250.01" y="718.75" width="159.99" height="50" as="geometry"/>
                </mxCell>
                <mxCell id="15" value="河合隼雄" style="rounded=1;whiteSpace=wrap;html=1;fontSize=18;" vertex="1" parent="20">
                    <mxGeometry x="533.92" y="765.62" width="182.18" height="54.37" as="geometry"/>
                </mxCell>
                <mxCell id="16" value="社会という荒野で仲間を作る力" style="rounded=1;whiteSpace=wrap;html=1;fontSize=18;" vertex="1" parent="20">
                    <mxGeometry x="758.59" y="690" width="351.41" height="50" as="geometry"/>
                </mxCell>
                <mxCell id="17" value="自分と他者を繋げるにはどうしたらいいのか" style="rounded=1;whiteSpace=wrap;html=1;fontSize=18;" vertex="1" parent="20">
                    <mxGeometry x="519.38" y="930" width="211.25" height="61.25" as="geometry"/>
                </mxCell>
                <mxCell id="18" value="小説家" style="rounded=1;whiteSpace=wrap;html=1;fontSize=18;" vertex="1" parent="20">
                    <mxGeometry x="353" y="560" width="150.94" height="50" as="geometry"/>
                </mxCell>
                <mxCell id="19" value="プログラマー" style="rounded=1;whiteSpace=wrap;html=1;fontSize=18;" vertex="1" parent="20">
                    <mxGeometry x="750" y="560" width="193" height="50" as="geometry"/>
                </mxCell>
                <mxCell id="12" value="アイデンティティを確立させる" style="rounded=1;whiteSpace=wrap;html=1;fontSize=18;" vertex="1" parent="20">
                    <mxGeometry x="130" y="850" width="342.49" height="50" as="geometry"/>
                </mxCell>
            </root>
        </mxGraphModel>
    </diagram>
</mxfile>